<?xml version="1.0" encoding="utf-8"?>
<!-- Generator: Adobe Illustrator 16.0.0, SVG Export Plug-In . SVG Version: 6.00 Build 0)  -->
<!DOCTYPE svg PUBLIC "-//W3C//DTD SVG 1.1//EN" "http://www.w3.org/Graphics/SVG/1.1/DTD/svg11.dtd">
<svg version="1.1" id="Icons" xmlns="http://www.w3.org/2000/svg" xmlns:xlink="http://www.w3.org/1999/xlink" x="0px" y="0px"
	 width="100px" height="100px" viewBox="0 0 100 100" enable-background="new 0 0 100 100" xml:space="preserve">
<path id="foursquare" fill="#802618" d="M95,11.5L61.334,45.843L49.227,34.174L44.15,39.06
	c-2.697-7.686-10.211-13.218-19.042-13.218C14.011,25.842,5,34.579,5,45.354c0,10.685,8.836,19.356,19.801,19.505L49.14,88.5
	l27.961-27.163l-2.668-2.767L95,42.653V11.5z M91.947,40.896L46.883,76.361L29.914,61.332c-1.563,0.456-3.221,0.708-4.935,0.708
	c-9.475,0-17.152-7.457-17.152-16.662c0-9.197,7.678-16.66,17.152-16.66c9.472,0,17.155,7.463,17.155,16.66
	c0,2.469-0.568,4.807-1.561,6.914l6.938,11.233l44.467-45.84L91.947,40.896z"/>
</svg>
