<?xml version="1.0" encoding="utf-8"?>
<!-- Generator: Adobe Illustrator 16.0.0, SVG Export Plug-In . SVG Version: 6.00 Build 0)  -->
<!DOCTYPE svg PUBLIC "-//W3C//DTD SVG 1.1//EN" "http://www.w3.org/Graphics/SVG/1.1/DTD/svg11.dtd">
<svg version="1.1" id="Layer_1" xmlns="http://www.w3.org/2000/svg" xmlns:xlink="http://www.w3.org/1999/xlink" x="0px" y="0px"
	 width="200px" height="200px" viewBox="0 0 200 200" enable-background="new 0 0 200 200" xml:space="preserve">
<path fill="#802619" d="M195.5,40.834c-7.027,3.113-14.58,5.217-22.506,6.163c8.09-4.844,14.304-12.514,17.229-21.654
	c-7.572,4.486-15.958,7.743-24.885,9.498c-7.147-7.606-17.331-12.359-28.603-12.359c-21.64,0-39.186,17.523-39.186,39.138
	c0,3.068,0.347,6.056,1.015,8.92c-32.567-1.633-61.441-17.214-80.768-40.894c-3.374,5.78-5.306,12.503-5.306,19.677
	c0,13.579,6.917,25.559,17.432,32.577c-6.423-0.204-12.466-1.964-17.749-4.896c-0.003,0.163-0.003,0.327-0.003,0.492
	c0,18.963,13.507,34.781,31.433,38.378c-3.288,0.894-6.75,1.373-10.324,1.373c-2.525,0-4.979-0.246-7.373-0.703
	c4.987,15.549,19.458,26.866,36.605,27.181c-13.411,10.498-30.307,16.755-48.667,16.755c-3.163,0-6.282-0.186-9.348-0.548
	c17.342,11.105,37.939,17.586,60.068,17.586c72.077,0,111.492-59.64,111.492-111.359c0-1.697-0.038-3.385-0.114-5.063
	C183.604,55.577,190.246,48.683,195.5,40.834z"/>
</svg>
