<?xml version="1.0" encoding="utf-8"?>
<!-- Generator: Adobe Illustrator 16.0.0, SVG Export Plug-In . SVG Version: 6.00 Build 0)  -->
<!DOCTYPE svg PUBLIC "-//W3C//DTD SVG 1.1//EN" "http://www.w3.org/Graphics/SVG/1.1/DTD/svg11.dtd">
<svg version="1.1" id="Icons" xmlns="http://www.w3.org/2000/svg" xmlns:xlink="http://www.w3.org/1999/xlink" x="0px" y="0px"
	 width="100px" height="100px" viewBox="0 0 100 100" enable-background="new 0 0 100 100" xml:space="preserve">
<path id="Yelp" fill="#802618" d="M27.749,9.099c4.539-3.568,13.266-4.59,16.857-3.894c3.594,0.692,5.471,2.702,5.494,5.15
	l0.207,31.21c0.016,2.451-1.256,4.704-2.83,5.007c-1.582,0.297-3.91-1.16-5.19-3.245L25.912,16.566
	C24.642,14.478,22.082,13.557,27.749,9.099z M22.312,68.445l16.486-5.834c2.297-0.814,4.355-3.081,4.586-5.051
	c0.223-1.969-1.447-4.307-3.712-5.203l-17.415-6.905c-2.267-0.896-4.882,1.229-5.572,4.706c0,0-0.414,12.109,0,14.615
	C17.104,67.279,20.015,69.264,22.312,68.445z M51.068,71.361c0.049-2.459-1.263-4.579-2.916-4.73
	c-1.653-0.152-4.277,1.258-5.844,3.129l-11.5,13.79c-1.566,1.874-0.788,6.275,1.494,7.108l12.025,4.177
	c2.289,0.833,6.32-1.632,6.367-4.082L51.068,71.361z M79.654,68.15l-14.42-4.146c-2.338-0.672-4.991-0.608-5.891,0.152
	c-0.898,0.752-0.676,3.129,0.502,5.274l9.1,16.655c1.178,2.146,5.884,1.777,7.18-0.304c0,0,5.484-8.092,6.494-11.126
	C83.628,71.617,81.991,68.822,79.654,68.15z M83.167,44.731c-0.649-2.107-5.158-8.319-7.601-10.436
	c-2.438-2.122-5.229-1.856-6.803,0.007l-9.293,11.07c-1.574,1.863-1.994,4.818-0.945,6.555c1.05,1.737,3.849,2.722,6.224,2.188
	l16.074-2.98C83.725,50.439,83.827,46.838,83.167,44.731z"/>
</svg>
