<?xml version="1.0" encoding="utf-8"?>
<!-- Generator: Adobe Illustrator 16.0.0, SVG Export Plug-In . SVG Version: 6.00 Build 0)  -->
<!DOCTYPE svg PUBLIC "-//W3C//DTD SVG 1.1//EN" "http://www.w3.org/Graphics/SVG/1.1/DTD/svg11.dtd">
<svg version="1.1" id="Layer_1" xmlns="http://www.w3.org/2000/svg" xmlns:xlink="http://www.w3.org/1999/xlink" x="0px" y="0px"
	 width="88.422px" height="149.489px" viewBox="0 0 88.422 149.489" enable-background="new 0 0 88.422 149.489"
	 xml:space="preserve">
<g>
	<g>
		<g>
			<path fill="#CD6B00" d="M86.889,0.033C53.814,7.264,21.098,24.411,10.518,58.737c-7.399,24.004-2.314,51.054,8.64,73.149
				c0.702,1.416,2.814,0.174,2.115-1.236c-10.633-21.449-15.228-47.055-8.646-70.405C22.212,26.246,55.365,9.43,87.541,2.395
				C89.084,2.058,88.429-0.304,86.889,0.033L86.889,0.033z"/>
		</g>
	</g>
	<g>
		<g>
			<path fill="#CD6B00" d="M0.889,137.45c10.369,1.427,18.028,9.427,28,12c0.767,0.197,1.554-0.375,1.551-1.182
				c-0.048-11.625-0.818-24.514-7.167-34.618c-0.522-0.831-1.576-0.742-2.115,0c-5.786,7.961-9.614,19.061-20.268,21.437
				c-1.542,0.345-0.888,2.706,0.651,2.363c11.414-2.547,15.527-14.024,21.732-22.563c-0.705,0-1.41,0-2.115,0
				c6.126,9.75,6.786,22.167,6.833,33.382c0.517-0.394,1.034-0.787,1.551-1.182c-9.972-2.572-17.602-10.568-28-12
				C-0.004,134.875-0.67,137.235,0.889,137.45L0.889,137.45z"/>
		</g>
	</g>
</g>
</svg>
