<?xml version="1.0" encoding="utf-8"?>
<!-- Generator: Adobe Illustrator 16.0.0, SVG Export Plug-In . SVG Version: 6.00 Build 0)  -->
<!DOCTYPE svg PUBLIC "-//W3C//DTD SVG 1.1//EN" "http://www.w3.org/Graphics/SVG/1.1/DTD/svg11.dtd">
<svg version="1.1" id="Layer_1" xmlns="http://www.w3.org/2000/svg" xmlns:xlink="http://www.w3.org/1999/xlink" x="0px" y="0px"
	 width="298.451px" height="108.467px" viewBox="0 0 298.451 108.467" enable-background="new 0 0 298.451 108.467"
	 xml:space="preserve">
<g>
	<g>
		<path fill="#CD6B00" d="M218.117,2.856c-12.422-0.117-24.778,3.172-33.724,12.186c-8.018,8.079-11.371,19.62-11.403,30.77
			c-0.076,26.205,17.519,50.475,42.064,59.139c15.662,5.529,32.917,3.979,48.544-0.789c13.247-4.041,26.203-11.872,31.864-25.048
			c10.644-24.771-9.103-52.51-28.375-66.427c-23.23-16.775-53.561-17.859-74.965,2.449c-1.272,1.208,1.574,1.4,2.369,0.646
			c11.889-11.28,27.255-16.372,43.466-13.437c14.469,2.62,27.602,10.915,37.8,21.276c18.556,18.853,29.76,51.907,4.674,70.489
			c-14.282,10.579-35.133,14.182-52.468,11.813c-14.79-2.021-28.157-9.864-37.645-21.283c-15.266-18.375-21.514-50.145-3.557-68.953
			c7.839-8.21,19.254-11.083,30.282-10.98C218.269,4.719,220.08,2.875,218.117,2.856L218.117,2.856z"/>
	</g>
</g>
<g>
	<g>
		<g>
			<path fill="#CD6B00" d="M178.398,39.447c-39.06-14.331-84.051-23.433-124.572-9.478c-17.764,6.118-41.919,20.958-42.159,42.449
				c-0.009,0.82,2.886,0.303,2.897-0.777c0.227-20.317,22.857-34.166,39.467-40.249c39.139-14.335,84.341-4.426,122.048,9.408
				C176.911,41.105,179.55,39.87,178.398,39.447L178.398,39.447z"/>
		</g>
	</g>
	<g>
		<g>
			<path fill="#CD6B00" d="M4.176,54.242c-7.14,13.43-6.432,37.345,12.531,39.489c0.652,0.074,2.111-0.146,2.35-0.917
				c3.276-10.609,10.272-19.239,16.392-28.313c0.265-0.393-0.019-0.618-0.424-0.676c-10.175-1.457-20.378-2.968-29.739-7.438
				c-0.743-0.354-3.416,0.77-2.338,1.285c4.17,1.991,8.512,3.504,13.017,4.548c2.827,0.655,5.665,1.208,8.524,1.7
				c0.748,0.128,8.083,0.95,7.383,1.988C25.954,74.684,19.344,82.98,16.176,93.24c0.783-0.306,1.566-0.611,2.35-0.917
				C0.198,90.25,0.358,66.417,7.057,53.816C7.406,53.158,4.615,53.415,4.176,54.242L4.176,54.242z"/>
		</g>
	</g>
</g>
</svg>
