<?xml version="1.0" encoding="utf-8"?>
<!-- Generator: Adobe Illustrator 16.0.0, SVG Export Plug-In . SVG Version: 6.00 Build 0)  -->
<!DOCTYPE svg PUBLIC "-//W3C//DTD SVG 1.1//EN" "http://www.w3.org/Graphics/SVG/1.1/DTD/svg11.dtd">
<svg version="1.1" id="Layer_1" xmlns="http://www.w3.org/2000/svg" xmlns:xlink="http://www.w3.org/1999/xlink" x="0px" y="0px"
	 width="84.97px" height="22.327px" viewBox="0 0 84.97 22.327" enable-background="new 0 0 84.97 22.327" xml:space="preserve">
<g>
	<g>
		<g>
			<path fill="#CD6B00" d="M11.17,8.451c10.632,6.591,22.184,11.239,34.645,12.844c12.604,1.624,25.305,0.854,37.97,0.822
				c1.58-0.004,1.58-2.453,0-2.449C72.6,19.694,61.4,20.291,50.237,19.347c-13.625-1.152-26.251-5.833-37.83-13.011
				C11.06,5.5,9.831,7.621,11.17,8.451L11.17,8.451z"/>
		</g>
	</g>
	<g>
		<g>
			<path fill="#CD6B00" d="M25.833,4.162c4.825-2.856-0.145-4.313-3.308-4.149C15.316,0.386,7.897,1.723,0.89,3.423
				C0.222,3.585-0.113,4.295,0.034,4.93c1.813,7.832,7.25,11.439,14.354,14.355c0.491,0.201,1.143-0.127,1.383-0.563
				C18.331,14.077,21.336,7.159,25.833,4.162c1.308-0.872,0.083-2.995-1.236-2.115c-4.198,2.798-6.896,8.462-9.374,12.687
				c-0.424,0.723-0.838,1.452-1.249,2.183c-0.094,0.167-0.187,0.335-0.28,0.502c0.623-1.123-2.64-2.285-3.156-2.549
				C6.081,12.599,3.517,9.114,2.396,4.278c-0.285,0.502-0.57,1.005-0.855,1.507c4.451-1.08,8.997-1.812,13.524-2.486
				c2.476-0.368,4.962-0.665,7.459-0.837c0.821-0.056,1.642-0.067,2.464-0.045c1.417,0.039,0.951-1.166-0.393-0.371
				C23.238,2.85,24.47,4.969,25.833,4.162z"/>
		</g>
	</g>
</g>
</svg>
