<?xml version="1.0" encoding="utf-8"?>
<!-- Generator: Adobe Illustrator 16.0.0, SVG Export Plug-In . SVG Version: 6.00 Build 0)  -->
<!DOCTYPE svg PUBLIC "-//W3C//DTD SVG 1.1//EN" "http://www.w3.org/Graphics/SVG/1.1/DTD/svg11.dtd">
<svg version="1.1" id="Layer_1" xmlns="http://www.w3.org/2000/svg" xmlns:xlink="http://www.w3.org/1999/xlink" x="0px" y="0px"
	 width="102.548px" height="51.876px" viewBox="0 0 102.548 51.876" enable-background="new 0 0 102.548 51.876"
	 xml:space="preserve">
<g>
	<g>
		<g>
			<path fill="#CD6B00" d="M0.206,48.394c17.12,5.968,35.786,3.674,52.535-2.417C69.186,39.996,85.5,29.095,94.108,13.49
				c0.445-0.807-1.493-0.596-1.799-0.042c-8.055,14.601-22.628,24.489-37.74,30.727c-16.45,6.788-35.773,9.228-52.826,3.283
				C1.156,47.253-0.595,48.114,0.206,48.394L0.206,48.394z"/>
		</g>
	</g>
	<g>
		<g>
			<path fill="#CD6B00" d="M74.504,17.531c8.738,1.715,17.202,4.718,26.1,5.57c0.418,0.04,1.257-0.195,1.331-0.706
				c1.095-7.465,0.815-14.835-1.59-22.031c-0.228-0.68-1.405-0.257-1.752,0.057c-7.235,6.562-16.237,10.541-24.122,16.202
				c-1.066,0.766,0.564,1.154,1.227,0.679c8.008-5.75,17.119-9.812,24.468-16.478c-0.584,0.019-1.168,0.038-1.752,0.057
				c2.369,7.089,2.662,14.352,1.582,21.723c0.443-0.235,0.888-0.47,1.331-0.706c-8.745-0.837-17.072-3.818-25.662-5.504
				C74.979,16.261,73.375,17.31,74.504,17.531L74.504,17.531z"/>
		</g>
	</g>
</g>
</svg>
