<?xml version="1.0" encoding="utf-8"?>
<!-- Generator: Adobe Illustrator 16.0.0, SVG Export Plug-In . SVG Version: 6.00 Build 0)  -->
<!DOCTYPE svg PUBLIC "-//W3C//DTD SVG 1.1//EN" "http://www.w3.org/Graphics/SVG/1.1/DTD/svg11.dtd">
<svg version="1.1" id="Layer_1" xmlns="http://www.w3.org/2000/svg" xmlns:xlink="http://www.w3.org/1999/xlink" x="0px" y="0px"
	 width="141.985px" height="35.812px" viewBox="0 0 141.985 35.812" enable-background="new 0 0 141.985 35.812"
	 xml:space="preserve">
<g>
	<g>
		<path fill="#CD6B00" d="M1.829,35.459c15.127-17.25,37.613-26.261,59.898-29.57c21.183-3.146,45.016-1.217,63.539,10.339
			c0.747,0.466,2.426-0.55,1.482-1.139C107.703,3.206,83.658,1.43,61.887,4.43C38.984,7.585,15.686,17.201,0.203,34.855
			C-0.609,35.781,1.234,36.138,1.829,35.459L1.829,35.459z"/>
	</g>
</g>
<g>
	<g>
		<path fill="#CD6B00" d="M104.134,23.539c8.645-7.332,16.125-16.047,25.498-22.499c-0.505,0.009-1.01,0.018-1.515,0.026
			c5.859,7.521,10.172,15.937,11.924,25.351c0.512-0.287,1.024-0.574,1.536-0.86c-12.4-2.868-25.154-1.622-37.718-3.041
			c-0.869-0.098-2.007,1.138-0.701,1.285c12.408,1.4,25.032,0.127,37.278,2.959c0.506,0.117,1.675-0.118,1.536-0.86
			c-1.772-9.526-6.153-18.045-12.076-25.647c-0.338-0.433-1.143-0.23-1.515,0.026c-9.381,6.458-16.848,15.162-25.498,22.499
			C101.885,23.625,103.458,24.112,104.134,23.539L104.134,23.539z"/>
	</g>
</g>
</svg>
