<?xml version="1.0" encoding="utf-8"?>
<!-- Generator: Adobe Illustrator 16.0.0, SVG Export Plug-In . SVG Version: 6.00 Build 0)  -->
<!DOCTYPE svg PUBLIC "-//W3C//DTD SVG 1.1//EN" "http://www.w3.org/Graphics/SVG/1.1/DTD/svg11.dtd">
<svg version="1.1" id="Layer_1" xmlns="http://www.w3.org/2000/svg" xmlns:xlink="http://www.w3.org/1999/xlink" x="0px" y="0px"
	 width="106.925px" height="72.144px" viewBox="0 0 106.925 72.144" enable-background="new 0 0 106.925 72.144"
	 xml:space="preserve">
<g>
	<g>
		<path fill="#CD6B00" d="M106.396,71.166c-14.372-0.555-28.741-0.697-43.072-2.053c-14.892-1.409-31.028-3.683-44.027-11.594
			C10.62,52.239,4.993,43.134,2.725,33.378C1.598,28.531,1.606,23.373,3.571,18.75c3.321-7.819,12.458-9.558,20.042-9.661
			c0.642-0.009,2.083-0.995,0.783-0.978C12.762,8.27,1.079,12.64,0.078,25.727c-0.799,10.451,4.686,21.162,11.957,28.328
			c10.902,10.743,29.06,13.428,43.519,15.284c16.607,2.132,33.357,2.159,50.06,2.805C106.266,72.168,107.697,71.216,106.396,71.166
			L106.396,71.166z"/>
	</g>
</g>
<g>
	<g>
		<path fill="#CD6B00" d="M15.039,0.859c0.908,5.927,0.996,11.869,0.998,17.855c0,0.734,1.208,0.434,1.573,0.196
			c6.145-3.995,12.856-7.005,19-11c0.167-0.109,0.566-0.475,0.29-0.695c-5.998-4.777-12.893-7.057-20.526-7.186
			c-0.757-0.013-2.047,1.12-0.739,1.143c3.27,0.056,6.418,0.5,9.562,1.405c0.587,0.169,10.143,4.752,9.067,5.452
			c-5.762,3.746-12.098,6.513-17.864,10.262c0.524,0.065,1.049,0.131,1.573,0.196C17.97,12.41,17.893,6.361,16.97,0.341
			C16.864-0.352,14.923,0.107,15.039,0.859L15.039,0.859z"/>
	</g>
</g>
</svg>
