<?xml version="1.0" encoding="utf-8"?>
<!-- Generator: Adobe Illustrator 16.0.0, SVG Export Plug-In . SVG Version: 6.00 Build 0)  -->
<!DOCTYPE svg PUBLIC "-//W3C//DTD SVG 1.1//EN" "http://www.w3.org/Graphics/SVG/1.1/DTD/svg11.dtd">
<svg version="1.1" id="Layer_1" xmlns="http://www.w3.org/2000/svg" xmlns:xlink="http://www.w3.org/1999/xlink" x="0px" y="0px"
	 width="98.597px" height="73.528px" viewBox="0 0 98.597 73.528" enable-background="new 0 0 98.597 73.528" xml:space="preserve">
<g>
	<g>
		<g>
			<path fill="#CD6B00" d="M14.557,61.419C15.064,21.712,60.326-6.295,97.052,2.76c0.563,0.139,2.27-0.725,1.199-0.988
				C60.5-7.537,13.149,20.906,12.625,61.937C12.618,62.467,14.548,62.128,14.557,61.419L14.557,61.419z"/>
		</g>
	</g>
	<g>
		<g>
			<path fill="#CD6B00" d="M0.042,55.693c5.559,5.157,9.347,11.71,13.905,17.697c0.3,0.395,1.675-0.151,1.863-0.499
				c3.274-6.083,5.67-12.554,8.217-18.961c0.031-0.07,0.015-0.128-0.046-0.173c-6.34-2.909-14.066-3.047-19.982,0.92
				c-0.818,0.549,1.127,0.336,1.489,0.094c3.805-2.553,8.189-2.652,12.509-1.792c0.763,0.173,1.515,0.389,2.254,0.646
				c2.597,0.827,0.598,3.841,0.109,5.084c-1.94,4.936-3.942,9.834-6.458,14.508c0.621-0.166,1.242-0.333,1.863-0.499
				C11.2,66.725,7.425,60.187,1.858,55.021C1.467,54.659-0.291,55.385,0.042,55.693L0.042,55.693z"/>
		</g>
	</g>
</g>
</svg>
