<?xml version="1.0" encoding="utf-8"?>
<!-- Generator: Adobe Illustrator 16.0.0, SVG Export Plug-In . SVG Version: 6.00 Build 0)  -->
<!DOCTYPE svg PUBLIC "-//W3C//DTD SVG 1.1//EN" "http://www.w3.org/Graphics/SVG/1.1/DTD/svg11.dtd">
<svg version="1.1" id="Layer_1" xmlns="http://www.w3.org/2000/svg" xmlns:xlink="http://www.w3.org/1999/xlink" x="0px" y="0px"
	 width="57.369px" height="71.932px" viewBox="0 0 57.369 71.932" enable-background="new 0 0 57.369 71.932" xml:space="preserve">
<g>
	<g>
		<path fill="#CD6B00" d="M57.209,71.068C42.181,66.776,28.247,59.18,19.737,45.672c-6.694-10.625-8.592-23.512-8.652-35.847
			c-0.002-0.469-1.935-0.14-1.932,0.518C9.216,23.243,11.43,36.072,18.4,47.134c8.32,13.206,22.658,20.612,37.249,24.78
			C56.163,72.061,57.899,71.266,57.209,71.068L57.209,71.068z"/>
	</g>
</g>
<g>
	<g>
		<path fill="#CD6B00" d="M1.875,18.774c3.452-5.796,4.939-12.551,8.716-18.157C9.969,0.695,9.347,0.772,8.725,0.85
			c2.368,6.476,7.697,11.425,9.442,18.157c0.277-0.251,0.555-0.503,0.833-0.754c-5.607,1.193-11.135-0.021-16.71-0.765
			c-0.623-0.083-2.278,0.92-1.178,1.067c6.115,0.815,12.022,1.994,18.153,0.688c0.287-0.061,0.937-0.355,0.833-0.754
			c-1.748-6.744-7.073-11.678-9.442-18.157C10.41-0.343,9.066,0.153,8.79,0.564C5.009,6.176,3.526,12.925,0.074,18.721
			C-0.4,19.516,1.545,19.329,1.875,18.774L1.875,18.774z"/>
	</g>
</g>
</svg>
