<?xml version="1.0" encoding="utf-8"?>
<!-- Generator: Adobe Illustrator 16.0.0, SVG Export Plug-In . SVG Version: 6.00 Build 0)  -->
<!DOCTYPE svg PUBLIC "-//W3C//DTD SVG 1.1//EN" "http://www.w3.org/Graphics/SVG/1.1/DTD/svg11.dtd">
<svg version="1.1" id="Layer_1" xmlns="http://www.w3.org/2000/svg" xmlns:xlink="http://www.w3.org/1999/xlink" x="0px" y="0px"
	 width="65.399px" height="29.791px" viewBox="0 0 65.399 29.791" enable-background="new 0 0 65.399 29.791" xml:space="preserve">
<g>
	<g>
		<g>
			<path fill="#CD6B00" d="M1.185,13.188c16.254-0.043,32.482-1.142,48.735-1.189c1.58-0.005,1.58-2.455,0-2.45
				c-16.253,0.047-32.481,1.146-48.735,1.189C-0.395,10.742-0.395,13.191,1.185,13.188L1.185,13.188z"/>
		</g>
	</g>
	<g>
		<g>
			<path fill="#CD6B00" d="M35.332,2.445c9.556,3.561,19.289,6.798,28.235,11.763c0-0.705,0-1.41,0-2.115
				c-9.533,5.859-19.712,10.48-29.717,15.453c0.614,0.353,1.229,0.705,1.843,1.058c1.109-8.762,2.164-17.321,1.188-26.151
				c-0.171-1.553-2.623-1.569-2.449,0c0.975,8.83-0.079,17.39-1.189,26.151c-0.126,1,1.113,1.421,1.843,1.058
				c10.005-4.973,20.185-9.594,29.717-15.453c0.766-0.47,0.823-1.659,0-2.115c-9.13-5.067-19.069-8.376-28.821-12.01
				C34.499-0.47,33.864,1.899,35.332,2.445L35.332,2.445z"/>
		</g>
	</g>
</g>
</svg>
