<?xml version="1.0" encoding="utf-8"?>
<!-- Generator: Adobe Illustrator 16.0.0, SVG Export Plug-In . SVG Version: 6.00 Build 0)  -->
<!DOCTYPE svg PUBLIC "-//W3C//DTD SVG 1.1//EN" "http://www.w3.org/Graphics/SVG/1.1/DTD/svg11.dtd">
<svg version="1.1" id="Layer_1" xmlns="http://www.w3.org/2000/svg" xmlns:xlink="http://www.w3.org/1999/xlink" x="0px" y="0px"
	 width="52.888px" height="67.141px" viewBox="0 0 52.888 67.141" enable-background="new 0 0 52.888 67.141" xml:space="preserve">
<g>
	<g>
		<path fill="#CC6D28" d="M52.364,0.006C38.156-0.229,24.666,5.852,16.2,17.408c-8.971,12.245-8.386,28.067-0.132,40.438
			c0.309,0.464,2.185-0.146,1.805-0.715C0.67,31.349,22.241,0.486,51.577,0.971C52.216,0.982,53.664,0.028,52.364,0.006
			L52.364,0.006z"/>
	</g>
</g>
<g>
	<g>
		<path fill="#CC6D28" d="M2.129,56.082c6.364-1.898,12.453-4.76,19-6c-0.375-0.112-0.75-0.224-1.125-0.335
			c0.862,5.593,0.989,11.186,0.992,16.833c0.441-0.245,0.882-0.49,1.324-0.734c-7.762-1.354-14.602-5.982-20.596-10.881
			c-0.593-0.484-2.328,0.376-1.508,1.047c6.26,5.114,13.317,9.709,21.404,11.119c0.389,0.068,1.324-0.218,1.324-0.734
			c-0.002-5.768-0.127-11.457-1.008-17.167c-0.072-0.471-0.821-0.393-1.125-0.335c-6.546,1.241-12.638,4.104-19,6
			C0.646,55.242,0.953,56.433,2.129,56.082L2.129,56.082z"/>
	</g>
</g>
</svg>
