<?xml version="1.0" encoding="utf-8"?>
<!-- Generator: Adobe Illustrator 16.0.0, SVG Export Plug-In . SVG Version: 6.00 Build 0)  -->
<!DOCTYPE svg PUBLIC "-//W3C//DTD SVG 1.1//EN" "http://www.w3.org/Graphics/SVG/1.1/DTD/svg11.dtd">
<svg version="1.1" id="Layer_1" xmlns="http://www.w3.org/2000/svg" xmlns:xlink="http://www.w3.org/1999/xlink" x="0px" y="0px"
	 width="71.928px" height="53.489px" viewBox="0 0 71.928 53.489" enable-background="new 0 0 71.928 53.489" xml:space="preserve">
<g>
	<g>
		<path fill="#CD6B00" d="M12.009,13.132c-1.695,29.877,35.798,37.17,58.373,40.352c0.602,0.085,2.276-0.886,1.186-1.039
			C49.438,49.326,12.273,42.256,13.94,12.886C13.984,12.102,12.045,12.496,12.009,13.132L12.009,13.132z"/>
	</g>
</g>
<g>
	<g>
		<path fill="#CD6B00" d="M2.377,25.067c6.112,1.65,12.017,0.204,18.215,0.018c0.43-0.013,1.365-0.199,1.349-0.779
			c-0.244-8.566-3.473-16.951-8.066-24.111c-0.299-0.466-1.373,0.02-1.668,0.233C5.526,5.255,2.075,12.931,0.011,20.694
			c-0.175,0.66,1.761,0.366,1.927-0.259C3.946,12.879,7.233,5.405,13.743,0.701c-0.556,0.078-1.112,0.156-1.668,0.233
			c4.541,7.078,7.693,15.429,7.934,23.889c0.45-0.26,0.899-0.52,1.349-0.779c-6.005,0.18-11.85,1.621-17.785,0.018
			C2.996,23.907,1.303,24.777,2.377,25.067L2.377,25.067z"/>
	</g>
</g>
</svg>
