<?xml version="1.0" encoding="utf-8"?>
<!-- Generator: Adobe Illustrator 16.0.0, SVG Export Plug-In . SVG Version: 6.00 Build 0)  -->
<!DOCTYPE svg PUBLIC "-//W3C//DTD SVG 1.1//EN" "http://www.w3.org/Graphics/SVG/1.1/DTD/svg11.dtd">
<svg version="1.1" id="Layer_1" xmlns="http://www.w3.org/2000/svg" xmlns:xlink="http://www.w3.org/1999/xlink" x="0px" y="0px"
	 width="70.906px" height="54.169px" viewBox="0 0 70.906 54.169" enable-background="new 0 0 70.906 54.169" xml:space="preserve">
<g>
	<g>
		<path fill="#CD6B00" d="M70.39,53.158C54.637,53.716,39.03,50.667,26.782,40.22C17.397,32.214,11.765,20.755,7.97,9.235
			C7.782,8.663,5.863,9.22,6.039,9.753c4.105,12.462,10.314,24.178,20.626,32.584c11.999,9.782,27.888,12.297,42.932,11.765
			C70.211,54.079,71.684,53.112,70.39,53.158L70.39,53.158z"/>
	</g>
</g>
<g>
	<g>
		<path fill="#CD6B00" d="M1.944,20.438c1.479-6.583,0.85-13.452,2.692-19.959C4.015,0.646,3.394,0.812,2.773,0.978
			c3.114,3.967,7.345,6.699,11.037,10.071c0.83,0.758,1.562,1.601,2.283,2.46c1.867,2.224-2.792,3.169-4.171,3.584
			c-3.356,1.01-6.91,1.372-10.35,2.001c-0.92,0.168-1.586,1.336-0.258,1.094c6.07-1.11,12.102-1.798,17.537-4.934
			c0.251-0.145,0.473-0.4,0.294-0.679C15.396,8.711,8.825,5.641,4.565,0.215c-0.392-0.5-1.708-0.046-1.863,0.499
			C0.86,7.222,1.489,14.091,0.01,20.674C-0.157,21.417,1.793,21.11,1.944,20.438L1.944,20.438z"/>
	</g>
</g>
</svg>
