<?xml version="1.0" encoding="utf-8"?>
<!-- Generator: Adobe Illustrator 16.0.0, SVG Export Plug-In . SVG Version: 6.00 Build 0)  -->
<!DOCTYPE svg PUBLIC "-//W3C//DTD SVG 1.1//EN" "http://www.w3.org/Graphics/SVG/1.1/DTD/svg11.dtd">
<svg version="1.1" id="Layer_1" xmlns="http://www.w3.org/2000/svg" xmlns:xlink="http://www.w3.org/1999/xlink" x="0px" y="0px"
	 width="190.081px" height="54.754px" viewBox="0 0 190.081 54.754" enable-background="new 0 0 190.081 54.754"
	 xml:space="preserve">
<g>
	<g>
		<path fill="#CD6B00" d="M47.703,0.013c-10.692,1.245-21.368,3.43-31.29,7.702C9.612,10.643,2.302,15.324,0.39,22.938
			c-2.204,8.774,5.372,15.766,12.055,19.764c10.121,6.055,21.978,8.432,33.547,9.65c28.311,2.98,57.056,3.209,85.399,0.563
			c13.103-1.223,26.674-2.794,39.255-6.808c6.77-2.159,14.252-5.641,17.963-12.041c4.029-6.95-0.915-14.123-6.32-18.457
			c-10.917-8.751-25.965-9.751-39.257-11.201C106.707,0.448,70.523,1.136,34.41,6.672c-1.002,0.153-1.532,1.471-0.211,1.269
			c26.428-4.051,52.975-5.729,79.698-4.503c14.817,0.68,29.786,1.921,44.444,4.224c9.145,1.437,18.863,4.93,25.424,11.703
			c4.981,5.142,5.766,11.987,0.898,17.458c-8.019,9.013-23.341,10.729-34.441,12.5c-29.187,4.656-59.138,4.987-88.577,3.034
			c-11.528-0.766-23.178-1.578-34.281-4.951c-9.51-2.889-21.336-7.922-24.694-18.146c-3.174-9.664,5.85-16.372,13.415-20.029
			c9.697-4.688,20.794-6.713,31.407-7.949C48.51,1.163,49.029-0.142,47.703,0.013L47.703,0.013z"/>
	</g>
</g>
</svg>
