<?xml version="1.0" encoding="utf-8"?>
<!-- Generator: Adobe Illustrator 16.0.0, SVG Export Plug-In . SVG Version: 6.00 Build 0)  -->
<!DOCTYPE svg PUBLIC "-//W3C//DTD SVG 1.1//EN" "http://www.w3.org/Graphics/SVG/1.1/DTD/svg11.dtd">
<svg version="1.1" id="Layer_1" xmlns="http://www.w3.org/2000/svg" xmlns:xlink="http://www.w3.org/1999/xlink" x="0px" y="0px"
	 width="45.116px" height="11.723px" viewBox="0 0 45.116 11.723" enable-background="new 0 0 45.116 11.723" xml:space="preserve">
<g>
	<path fill-rule="evenodd" clip-rule="evenodd" fill="#CD6B00" d="M16.126,11.723c0.871,0,1.741,0,2.612,0
		c0.035-1.581-0.071-3.304,0.053-4.796c3.553,0,7.106,0,10.659,0c0-0.799,0-1.599,0-2.398c-2.515,0-10.219,0.193-10.762,0.003
		c0.033-0.642-0.018-1.528,0.103-2.082c3.553,0,7.106,0,10.659,0c0-0.798,0-1.598,0-2.397c-4.441,0-8.882,0-13.323,0
		C16.126,3.943,16.126,7.833,16.126,11.723z"/>
	<path fill-rule="evenodd" clip-rule="evenodd" fill="#CD6B00" d="M12.774,0.581c-0.126-0.095-0.259-0.177-0.398-0.242
		c-0.265-0.125-0.636-0.158-0.923-0.215c-0.244-0.048-1.505-0.069-1.89-0.06C8.582,0.09,7.597,0.024,6.614,0.036
		c-1.003,0.011-2.006-0.029-3.01-0.02C2.801,0.023,1.999-0.001,1.196,0.015c-0.361,0.007-0.777-0.044-1.132,0.03
		c-0.007,0.001-0.025,0.003-0.03,0.008c-0.077,0.077,0,8.376,0,11.67c0.87,0,1.741,0,2.611,0c0.035-1.333-0.07-2.806,0.053-4.05
		c2.86,0,5.72,0,8.58,0c1.67-0.176,2.548-1.146,2.664-2.878c0-1.021,0.207-2.276-0.307-3.205
		C13.429,1.218,13.129,0.849,12.774,0.581z M10.903,4.94c-0.215,0.174-0.506,0.255-0.797,0.282C7.743,5.346,5.149,5.24,2.698,5.275
		c-0.094-0.38,0-2.824,0-2.824s1.502,0,1.971,0c1.714,0,3.428-0.033,5.142,0.022c0.356,0.012,0.974,0.047,1.241,0.338
		c0.151,0.164,0.147,0.334,0.19,0.547c0.081,0.403,0.088,0.829-0.068,1.217C11.112,4.728,11.018,4.847,10.903,4.94z"/>
	<path fill-rule="evenodd" clip-rule="evenodd" fill="#CD6B00" d="M42.398,0c-2.653,0-5.565,0-8.047,0
		c-1.429,0-2.931,1.567-2.931,2.983c0,1.759,0,3.518,0,5.276c0,0.289,0.09,0.715,0.138,1.018c0.2,1.236,1.34,2.393,2.634,2.393
		c3.641,0,7.281,0,10.924,0c0-0.799,0-1.599,0-2.396c-2.926,0-5.853-0.002-8.779,0c-0.842,0-2.299,0.3-2.411-0.907
		c-0.058-1.004-0.073-2.01-0.063-3.016c0.008-0.768-0.211-2.087,0.43-2.649c0.425-0.373,1.044-0.275,1.572-0.287
		c0.739-0.015,1.478-0.021,2.217-0.024c1.5-0.005,3,0.01,4.5,0.014c0.846,0.003,1.689,0.002,2.535-0.006c0-0.746,0-1.599,0-2.345
		C45.102,0.037,43.168,0,42.398,0z"/>
</g>
</svg>
