<?xml version="1.0" encoding="utf-8"?>
<!-- Generator: Adobe Illustrator 16.0.0, SVG Export Plug-In . SVG Version: 6.00 Build 0)  -->
<!DOCTYPE svg PUBLIC "-//W3C//DTD SVG 1.1//EN" "http://www.w3.org/Graphics/SVG/1.1/DTD/svg11.dtd">
<svg version="1.1" id="Layer_1" xmlns="http://www.w3.org/2000/svg" xmlns:xlink="http://www.w3.org/1999/xlink" x="0px" y="0px"
	 width="35.254px" height="15.557px" viewBox="0 0 35.254 15.557" enable-background="new 0 0 35.254 15.557" xml:space="preserve">
<g>
	<path fill="#CD6B00" d="M29.404,0H5.849C2.618,0,0,2.619,0,5.849v3.858c0,3.23,2.618,5.85,5.849,5.85h23.556
		c3.23,0,5.85-2.619,5.85-5.85V5.849C35.254,2.619,32.635,0,29.404,0z M10.529,11.494h-1.99L7.666,6.702l-0.853,4.792h-1.97
		L2.975,3.717h2.234l0.649,4.548l0.853-4.548h1.97l0.833,4.548l0.67-4.569h2.193L10.529,11.494z M15.322,11.453h-2.01V5.829h2.01
		V11.453z M14.337,5.26c-0.646,0-1.168-0.45-1.168-1.006c0-0.554,0.523-1.004,1.168-1.004c0.644,0,1.167,0.45,1.167,1.004
		C15.505,4.81,14.981,5.26,14.337,5.26z M33.984,9.829c0,4.021-4.439,4.565-4.439,4.565l-13.632,0.012
		c2.641-2.315,2.435-4.74,2.435-4.74V6.092c0-4.71,4.752-4.874,4.752-4.874s2.152,0,6.255,0s4.63,4.59,4.63,4.59
		S33.984,5.808,33.984,9.829z"/>
	<rect x="28.988" y="5.829" fill="#CD6B00" width="2.011" height="5.625"/>
	<ellipse fill="#CD6B00" cx="30.014" cy="4.254" rx="1.168" ry="1.006"/>
	<polygon fill="#CD6B00" points="21.068,3.717 27.75,3.717 27.75,5.544 23.221,5.544 23.221,7.27 27.303,7.27 27.303,9.078 
		23.221,9.078 23.221,11.434 21.068,11.434 	"/>
</g>
</svg>
